HIERARCHY
ROOT Hips
{
	OFFSET 0.00000 0.00000 0.00000
	CHANNELS 6 Xposition Yposition Zposition Zrotation Yrotation Xrotation 
	JOINT LHipJoint
	{
		OFFSET 0 0 0
		CHANNELS 3 Zrotation Yrotation Xrotation
		JOINT LeftUpLeg
		{
			OFFSET 1.37959 -1.78713 0.86582
			CHANNELS 3 Zrotation Yrotation Xrotation
			JOINT LeftLeg
			{
				OFFSET 2.54611 -6.99539 0.00000
				CHANNELS 3 Zrotation Yrotation Xrotation
				JOINT LeftFoot
				{
					OFFSET 2.59951 -7.14211 0.00000
					CHANNELS 3 Zrotation Yrotation Xrotation
					JOINT LeftToeBase
					{
						OFFSET 0.18493 -0.50810 1.96120
						CHANNELS 3 Zrotation Yrotation Xrotation
						End Site
						{
							OFFSET 0.00000 -0.00000 1.02054
						}
					}
				}
			}
		}
	}
	JOINT RHipJoint
	{
		OFFSET 0 0 0
		CHANNELS 3 Zrotation Yrotation Xrotation
		JOINT RightUpLeg
		{
			OFFSET -1.33564 -1.78713 0.86582
			CHANNELS 3 Zrotation Yrotation Xrotation
			JOINT RightLeg
			{
				OFFSET -2.52705 -6.94302 0.00000
				CHANNELS 3 Zrotation Yrotation Xrotation
				JOINT RightFoot
				{
					OFFSET -2.55964 -7.03257 0.00000
					CHANNELS 3 Zrotation Yrotation Xrotation
					JOINT RightToeBase
					{
						OFFSET -0.25804 -0.70896 2.12109
						CHANNELS 3 Zrotation Yrotation Xrotation
						End Site
						{
							OFFSET -0.00000 -0.00000 1.11821
						}
					}
				}
			}
		}
	}
	JOINT LowerBack
	{
		OFFSET 0 0 0
		CHANNELS 3 Zrotation Yrotation Xrotation
		JOINT Spine
		{
			OFFSET -0.02031 2.24248 -0.18900
			CHANNELS 3 Zrotation Yrotation Xrotation
			JOINT Spine1
			{
				OFFSET 0.08342 2.24689 -0.03799
				CHANNELS 3 Zrotation Yrotation Xrotation
				JOINT Neck
				{
					OFFSET 0 0 0
					CHANNELS 3 Zrotation Yrotation Xrotation
					JOINT Neck1
					{
						OFFSET -0.11607 1.55844 0.24628
						CHANNELS 3 Zrotation Yrotation Xrotation
						JOINT Head
						{
							OFFSET 0.06877 1.60174 -0.17013
							CHANNELS 3 Zrotation Yrotation Xrotation
							End Site
							{
								OFFSET 0.03358 1.61266 -0.08543
							}
						}
					}
				}
				JOINT LeftShoulder
				{
					OFFSET 0 0 0
					CHANNELS 3 Zrotation Yrotation Xrotation
					JOINT LeftArm
					{
						OFFSET 3.47537 0.55866 -0.72348
						CHANNELS 3 Zrotation Yrotation Xrotation
						JOINT LeftForeArm
						{
							OFFSET 5.38154 -0.00000 0.00000
							CHANNELS 3 Zrotation Yrotation Xrotation
							JOINT LeftHand
							{
								OFFSET 3.33312 -0.00000 0.00000
								CHANNELS 3 Zrotation Yrotation Xrotation
								JOINT LeftFingerBase
								{
									OFFSET 0 0 0
									CHANNELS 3 Zrotation Yrotation Xrotation
									JOINT LeftHandIndex1
									{
										OFFSET 0.71079 -0.00000 0.00000
										CHANNELS 3 Zrotation Yrotation Xrotation
										End Site
										{
											OFFSET 0.57306 -0.00000 0.00000
										}
									}
								}
								JOINT LThumb
								{
									OFFSET 0 0 0
									CHANNELS 3 Zrotation Yrotation Xrotation
									End Site
									{
										OFFSET 0.58181 -0.00000 0.58181
									}
								}
							}
						}
					}
				}
				JOINT RightShoulder
				{
					OFFSET 0 0 0
					CHANNELS 3 Zrotation Yrotation Xrotation
					JOINT RightArm
					{
						OFFSET -3.27844 0.90739 -0.35708
						CHANNELS 3 Zrotation Yrotation Xrotation
						JOINT RightForeArm
						{
							OFFSET -5.16954 -0.00000 0.00000
							CHANNELS 3 Zrotation Yrotation Xrotation
							JOINT RightHand
							{
								OFFSET -3.38287 -0.00000 0.00000
								CHANNELS 3 Zrotation Yrotation Xrotation
								JOINT RightFingerBase
								{
									OFFSET 0 0 0
									CHANNELS 3 Zrotation Yrotation Xrotation
									JOINT RightHandIndex1
									{
										OFFSET -0.81797 -0.00000 0.00000
										CHANNELS 3 Zrotation Yrotation Xrotation
										End Site
										{
											OFFSET -0.65947 -0.00000 0.00000
										}
									}
								}
								JOINT RThumb
								{
									OFFSET 0 0 0
									CHANNELS 3 Zrotation Yrotation Xrotation
									End Site
									{
										OFFSET -0.66953 -0.00000 0.66953
									}
								}
							}
						}
					}
				}
			}
		}
	}
}
MOTION
Frames: 6
Frame Time: .0083333
13.0929 17.8295 11.9828 0 0 0 0 0 0 -21 0 0 0 0 0 0 0 0 0 0 0 0 0 0 21 0 0 0 0 0 0 0 0 0 0 0 0 0 0 0 0 0 0 0 0 0 0 -16 0 0 21 0 0 11 0 0 0 -8 0 0 0 0 0 0 0 0 0 0 0 0 0 0 0 0 0 0 0 0 8 0 0 0 0 0 0 0 0 0 0 0 0 0 0 0 0 0
13.0929 17.8295 11.9828 -178.2680 -10.6225 -171.4480 0.0000 0.0000 0.0000 -5.1740 -5.6304 -10.6231 4.7990 13.1538 39.9468 -0.2663 10.1584 -8.5394 0.8386 -5.8416 -16.3257 0.0000 0.0000 0.0000 18.4488 4.1678 -13.0349 -2.7301 -10.2447 29.7729 -1.3180 -2.5715 -22.7496 -0.0649 1.6437 -4.5220 -2.3538 2.5741 4.7227 1.1734 3.2662 1.8110 2.3398 1.5941 -0.9831 -12.6638 -5.2004 -12.7072 3.9988 -5.5273 15.6486 2.7834 -3.1309 7.3825 0.0000 -0.0000 0.0000 -86.6578 0.4391 14.6304 18.3113 -28.5539 -4.6971 -0.0000 -0.0000 6.8570 0.1714 40.0176 0.1102 -7.1250 0.0000 -0.0000 -44.8068 64.4429 -23.2531 0.0000 -0.0000 0.0000 84.2594 3.5836 12.9171 -18.6662 29.0018 -4.8679 0.0000 -0.0000 -9.5157 -9.7274 18.4435 -3.1043 7.1250 -0.0000 -0.0000 11.9938 -11.5924 9.5560
13.1716 17.8260 11.9162 -178.1100 -10.2891 -171.6230 0.0000 0.0000 0.0000 -4.8000 -5.7456 -11.2425 5.1704 13.5732 41.5539 -0.3680 11.0801 -7.2436 0.5097 -4.5762 -12.7037 0.0000 0.0000 0.0000 18.9405 4.3498 -12.3248 -2.6522 -10.1096 29.3323 -1.3442 -2.3118 -22.8436 -0.0136 0.7522 -2.0673 -2.3619 2.5440 4.6630 1.2529 3.2201 1.9706 2.4359 1.5630 -0.7883 -13.0115 -5.4330 -12.7346 4.3942 -5.8284 15.4899 2.9352 -3.2508 7.3842 -0.0000 -0.0000 0.0000 -86.8628 0.5092 14.2168 18.0835 -28.2640 -4.5887 -0.0000 -0.0000 7.1558 -0.3035 39.7427 -0.1941 -7.1250 0.0000 -0.0000 -44.8548 64.1156 -22.9499 -0.0000 -0.0000 0.0000 84.1248 3.9961 13.2384 -18.7856 29.1514 -4.9260 0.0000 -0.0000 -9.6232 -7.8872 18.8441 -2.5620 7.1250 -0.0000 -0.0000 13.1771 -11.3447 10.6195
13.2451 17.8249 11.8485 -177.7740 -10.0934 -171.7600 0.0000 0.0000 0.0000 -4.2415 -6.0767 -11.9360 5.5535 13.9812 43.1623 -0.4657 12.0450 -5.7001 0.6554 -5.1783 -14.4179 0.0000 0.0000 0.0000 19.6314 4.3203 -11.6471 -2.5503 -9.9288 28.7465 -1.3457 -2.0979 -22.7617 -0.0001 -0.0603 0.1658 -1.9943 2.4316 4.6496 1.2978 3.0815 2.0353 2.2869 1.4908 -0.6895 -13.2351 -5.6237 -12.6307 4.7316 -6.0965 15.1508 3.0546 -3.3491 7.2970 -0.0000 0.0000 0.0000 -86.9604 0.6876 13.9830 17.9353 -28.0743 -4.5188 -0.0000 -0.0000 7.2091 -0.1726 39.9216 -0.1108 -7.1250 0.0000 -0.0000 -44.9916 64.2788 -23.2006 -0.0000 0.0000 0.0000 84.0836 4.4797 13.7042 -18.6760 29.0141 -4.8727 0.0000 -0.0000 -9.6573 -9.9352 20.0356 -3.4343 7.1250 -0.0000 -0.0000 11.8584 -10.0017 9.8373
13.3156 17.8321 11.7815 -177.5230 -9.7833 -171.8770 0.0000 0.0000 0.0000 -3.8338 -6.3668 -12.6533 5.9337 14.3637 44.7149 -0.4826 12.2040 -4.8643 0.6081 -4.9914 -13.8840 0.0000 0.0000 0.0000 20.2055 4.0866 -11.0970 -2.4438 -9.7350 28.1229 -1.3298 -1.7303 -22.4740 -0.0021 0.2962 -0.8138 -1.6465 2.4327 4.7296 1.2450 3.0954 2.0119 2.0334 1.4996 -0.7377 -13.0050 -5.8001 -12.3651 4.5624 -6.3851 14.9043 2.9353 -3.4846 7.1838 0.0000 0.0000 0.0000 -86.8871 0.9763 14.1601 17.8015 -27.9022 -4.4559 -0.0000 -0.0000 7.2419 -0.1056 40.1886 -0.0681 -7.1250 0.0000 -0.0000 -45.3223 64.4859 -23.6179 0.0000 0.0000 0.0000 84.1456 4.4955 14.0626 -18.7628 29.1228 -4.9149 0.0000 -0.0000 -9.6655 -12.3616 21.5291 -4.5982 7.1250 -0.0000 -0.0000 10.3424 -8.2769 8.8958
13.3844 17.8465 11.7144 -177.5960 -9.2451 -171.9570 0.0000 0.0000 0.0000 -3.8926 -6.5460 -13.2775 6.3179 14.7295 46.2445 -0.4975 12.3831 -4.5167 0.3693 -3.9033 -10.8048 0.0000 0.0000 0.0000 20.3745 3.9304 -10.5257 -2.3264 -9.5152 27.4205 -1.3120 -1.3089 -22.1539 -0.0112 0.6825 -1.8755 -1.7482 2.5229 4.9304 1.1655 3.2100 1.9336 1.9909 1.5605 -0.9365 -12.9501 -5.9570 -12.2151 4.4421 -6.6240 14.9813 2.8623 -3.6126 7.1990 0.0000 -0.0000 0.0000 -87.0062 1.3750 14.1313 17.6414 -27.6955 -4.3813 -0.0000 -0.0000 7.7216 -0.1906 39.9705 -0.1224 -7.1250 0.0000 -0.0000 -45.0805 64.3084 -23.2858 0.0000 -0.0000 0.0000 84.1104 4.1318 14.4507 -19.1377 29.5895 -5.0987 0.0000 -0.0000 -9.7961 -10.8755 20.5364 -3.8558 7.1250 -0.0000 -0.0000 11.2637 -9.4177 9.4583
